<svg xmlns="http://www.w3.org/2000/svg" viewBox="0 0 800 400" fill="white">
  <path opacity="0.8" d="M392.8,21.2c-5.3-3.8-12.5-1.3-14.5,4.9l-33.3,102.3l-107.5,1.2c-6.4,0.1-11.5,5.5-10.9,11.8c0.5,5.2,4.6,9.3,9.8,10.2l87.2,14.9l-32.5,102.7c-2.2,6.9,2.2,14.2,9.1,16.4c6.9,2.2,14.2-2.2,16.4-9.1l39.3-123.1l39.3,123.1c2.2,6.9,9.5,11.3,16.4,9.1c6.9-2.2,11.3-9.5,9.1-16.4l-32.5-102.7l87.2-14.9c5.2-0.8,9.3-5,9.8-10.2c0.6-6.3-4.5-11.7-10.9-11.8l-107.5-1.2l-33.3-102.3C403.1,19.9,398.1,25,392.8,21.2z"/>
  <path d="M10,390 h780 v-180 h-150 l-240,-120 l-240,120 h-150 z" opacity="0.25"/>
  <path d="M250,390 l50,-150 l50,150 z M450,390 l-50,-150 l-50,150 z M370,390 l-20,-60 l40,0 l20,60 z" opacity="0.9"/>
</svg>